ISO-10303-21;
HEADER;
/* Generated by software containing ST-Developer
 * from STEP Tools, Inc. (www.steptools.com) 
 */
/* OPTION: using custom renumber hook */

FILE_DESCRIPTION(
/* description */ ('STEP AP242',
'CAx-IF Rec.Pracs.---Representation and Presentation of Product Manufa
cturing Information (PMI)---4.0---2014-10-13',
'CAx-IF Rec.Pracs.---3D Tessellated Geometry---0.4---2014-09-14','2;1'),

/* implementation_level */ '2;1');

FILE_NAME(
/* name */ '681384fc22fabb4144041176',
/* time_stamp */ '2025-05-01T14:28:13Z',
/* author */ (''),
/* organization */ (''),
/* preprocessor_version */ 'ST-DEVELOPER v20',
/* originating_system */ 'ONSHAPE BY PTC INC, 1.197',
/* authorisation */ '  ');

FILE_SCHEMA (('AP242_MANAGED_MODEL_BASED_3D_ENGINEERING_MIM_LF { 1 0 10303 442 1 1 4 }'));
ENDSEC;

DATA;
#10=SHAPE_REPRESENTATION_RELATIONSHIP('','',#231,#11);
#11=ADVANCED_BREP_SHAPE_REPRESENTATION('',(#229),#385);
#12=CIRCLE('',#235,0.004);
#13=CIRCLE('',#236,0.004);
#14=CIRCLE('',#239,0.004);
#15=CIRCLE('',#240,0.004);
#16=CIRCLE('',#243,0.004);
#17=CIRCLE('',#244,0.004);
#18=CIRCLE('',#247,0.02975);
#19=CIRCLE('',#248,0.02975);
#20=CIRCLE('',#250,0.02975);
#21=CIRCLE('',#251,0.02975);
#22=CIRCLE('',#253,0.004);
#23=CIRCLE('',#254,0.004);
#24=CYLINDRICAL_SURFACE('',#234,0.004);
#25=CYLINDRICAL_SURFACE('',#238,0.004);
#26=CYLINDRICAL_SURFACE('',#242,0.004);
#27=CYLINDRICAL_SURFACE('',#246,0.02975);
#28=CYLINDRICAL_SURFACE('',#249,0.02975);
#29=CYLINDRICAL_SURFACE('',#252,0.004);
#30=ORIENTED_EDGE('',*,*,#86,.T.);
#31=ORIENTED_EDGE('',*,*,#87,.F.);
#32=ORIENTED_EDGE('',*,*,#88,.F.);
#33=ORIENTED_EDGE('',*,*,#89,.T.);
#34=ORIENTED_EDGE('',*,*,#90,.T.);
#35=ORIENTED_EDGE('',*,*,#91,.F.);
#36=ORIENTED_EDGE('',*,*,#92,.F.);
#37=ORIENTED_EDGE('',*,*,#87,.T.);
#38=ORIENTED_EDGE('',*,*,#93,.T.);
#39=ORIENTED_EDGE('',*,*,#94,.F.);
#40=ORIENTED_EDGE('',*,*,#95,.F.);
#41=ORIENTED_EDGE('',*,*,#91,.T.);
#42=ORIENTED_EDGE('',*,*,#96,.T.);
#43=ORIENTED_EDGE('',*,*,#97,.F.);
#44=ORIENTED_EDGE('',*,*,#98,.F.);
#45=ORIENTED_EDGE('',*,*,#94,.T.);
#46=ORIENTED_EDGE('',*,*,#99,.F.);
#47=ORIENTED_EDGE('',*,*,#100,.F.);
#48=ORIENTED_EDGE('',*,*,#101,.T.);
#49=ORIENTED_EDGE('',*,*,#97,.T.);
#50=ORIENTED_EDGE('',*,*,#102,.T.);
#51=ORIENTED_EDGE('',*,*,#103,.F.);
#52=ORIENTED_EDGE('',*,*,#104,.F.);
#53=ORIENTED_EDGE('',*,*,#100,.T.);
#54=ORIENTED_EDGE('',*,*,#105,.F.);
#55=ORIENTED_EDGE('',*,*,#106,.F.);
#56=ORIENTED_EDGE('',*,*,#107,.T.);
#57=ORIENTED_EDGE('',*,*,#103,.T.);
#58=ORIENTED_EDGE('',*,*,#108,.T.);
#59=ORIENTED_EDGE('',*,*,#109,.F.);
#60=ORIENTED_EDGE('',*,*,#110,.F.);
#61=ORIENTED_EDGE('',*,*,#111,.T.);
#62=ORIENTED_EDGE('',*,*,#112,.T.);
#63=ORIENTED_EDGE('',*,*,#89,.F.);
#64=ORIENTED_EDGE('',*,*,#113,.F.);
#65=ORIENTED_EDGE('',*,*,#106,.T.);
#66=ORIENTED_EDGE('',*,*,#110,.T.);
#67=ORIENTED_EDGE('',*,*,#108,.F.);
#68=ORIENTED_EDGE('',*,*,#88,.T.);
#69=ORIENTED_EDGE('',*,*,#92,.T.);
#70=ORIENTED_EDGE('',*,*,#95,.T.);
#71=ORIENTED_EDGE('',*,*,#98,.T.);
#72=ORIENTED_EDGE('',*,*,#101,.F.);
#73=ORIENTED_EDGE('',*,*,#104,.T.);
#74=ORIENTED_EDGE('',*,*,#107,.F.);
#75=ORIENTED_EDGE('',*,*,#113,.T.);
#76=ORIENTED_EDGE('',*,*,#111,.F.);
#77=ORIENTED_EDGE('',*,*,#109,.T.);
#78=ORIENTED_EDGE('',*,*,#86,.F.);
#79=ORIENTED_EDGE('',*,*,#112,.F.);
#80=ORIENTED_EDGE('',*,*,#105,.T.);
#81=ORIENTED_EDGE('',*,*,#102,.F.);
#82=ORIENTED_EDGE('',*,*,#99,.T.);
#83=ORIENTED_EDGE('',*,*,#96,.F.);
#84=ORIENTED_EDGE('',*,*,#93,.F.);
#85=ORIENTED_EDGE('',*,*,#90,.F.);
#86=EDGE_CURVE('',#114,#115,#134,.T.);
#87=EDGE_CURVE('',#116,#115,#135,.T.);
#88=EDGE_CURVE('',#117,#116,#136,.T.);
#89=EDGE_CURVE('',#117,#114,#137,.T.);
#90=EDGE_CURVE('',#115,#118,#12,.T.);
#91=EDGE_CURVE('',#119,#118,#138,.T.);
#92=EDGE_CURVE('',#116,#119,#13,.T.);
#93=EDGE_CURVE('',#118,#120,#139,.T.);
#94=EDGE_CURVE('',#121,#120,#140,.T.);
#95=EDGE_CURVE('',#119,#121,#141,.T.);
#96=EDGE_CURVE('',#120,#122,#14,.T.);
#97=EDGE_CURVE('',#123,#122,#142,.T.);
#98=EDGE_CURVE('',#121,#123,#15,.T.);
#99=EDGE_CURVE('',#124,#122,#143,.T.);
#100=EDGE_CURVE('',#125,#124,#144,.T.);
#101=EDGE_CURVE('',#125,#123,#145,.T.);
#102=EDGE_CURVE('',#124,#126,#16,.T.);
#103=EDGE_CURVE('',#127,#126,#146,.T.);
#104=EDGE_CURVE('',#125,#127,#17,.T.);
#105=EDGE_CURVE('',#128,#126,#147,.T.);
#106=EDGE_CURVE('',#129,#128,#148,.T.);
#107=EDGE_CURVE('',#129,#127,#149,.T.);
#108=EDGE_CURVE('',#130,#130,#18,.T.);
#109=EDGE_CURVE('',#131,#131,#19,.T.);
#110=EDGE_CURVE('',#132,#132,#20,.T.);
#111=EDGE_CURVE('',#133,#133,#21,.T.);
#112=EDGE_CURVE('',#128,#114,#22,.T.);
#113=EDGE_CURVE('',#129,#117,#23,.T.);
#114=VERTEX_POINT('',#326);
#115=VERTEX_POINT('',#327);
#116=VERTEX_POINT('',#329);
#117=VERTEX_POINT('',#331);
#118=VERTEX_POINT('',#335);
#119=VERTEX_POINT('',#337);
#120=VERTEX_POINT('',#341);
#121=VERTEX_POINT('',#343);
#122=VERTEX_POINT('',#347);
#123=VERTEX_POINT('',#349);
#124=VERTEX_POINT('',#353);
#125=VERTEX_POINT('',#355);
#126=VERTEX_POINT('',#359);
#127=VERTEX_POINT('',#361);
#128=VERTEX_POINT('',#365);
#129=VERTEX_POINT('',#367);
#130=VERTEX_POINT('',#371);
#131=VERTEX_POINT('',#373);
#132=VERTEX_POINT('',#376);
#133=VERTEX_POINT('',#378);
#134=LINE('',#325,#150);
#135=LINE('',#328,#151);
#136=LINE('',#330,#152);
#137=LINE('',#332,#153);
#138=LINE('',#336,#154);
#139=LINE('',#340,#155);
#140=LINE('',#342,#156);
#141=LINE('',#344,#157);
#142=LINE('',#348,#158);
#143=LINE('',#352,#159);
#144=LINE('',#354,#160);
#145=LINE('',#356,#161);
#146=LINE('',#360,#162);
#147=LINE('',#364,#163);
#148=LINE('',#366,#164);
#149=LINE('',#368,#165);
#150=VECTOR('',#261,1.);
#151=VECTOR('',#262,1.);
#152=VECTOR('',#263,1.);
#153=VECTOR('',#264,1.);
#154=VECTOR('',#269,1.);
#155=VECTOR('',#274,1.);
#156=VECTOR('',#275,1.);
#157=VECTOR('',#276,1.);
#158=VECTOR('',#281,1.);
#159=VECTOR('',#286,1.);
#160=VECTOR('',#287,1.);
#161=VECTOR('',#288,1.);
#162=VECTOR('',#293,1.);
#163=VECTOR('',#298,1.);
#164=VECTOR('',#299,1.);
#165=VECTOR('',#300,1.);
#166=EDGE_LOOP('',(#30,#31,#32,#33));
#167=EDGE_LOOP('',(#34,#35,#36,#37));
#168=EDGE_LOOP('',(#38,#39,#40,#41));
#169=EDGE_LOOP('',(#42,#43,#44,#45));
#170=EDGE_LOOP('',(#46,#47,#48,#49));
#171=EDGE_LOOP('',(#50,#51,#52,#53));
#172=EDGE_LOOP('',(#54,#55,#56,#57));
#173=EDGE_LOOP('',(#58));
#174=EDGE_LOOP('',(#59));
#175=EDGE_LOOP('',(#60));
#176=EDGE_LOOP('',(#61));
#177=EDGE_LOOP('',(#62,#63,#64,#65));
#178=EDGE_LOOP('',(#66));
#179=EDGE_LOOP('',(#67));
#180=EDGE_LOOP('',(#68,#69,#70,#71,#72,#73,#74,#75));
#181=EDGE_LOOP('',(#76));
#182=EDGE_LOOP('',(#77));
#183=EDGE_LOOP('',(#78,#79,#80,#81,#82,#83,#84,#85));
#184=FACE_BOUND('',#166,.T.);
#185=FACE_BOUND('',#167,.T.);
#186=FACE_BOUND('',#168,.T.);
#187=FACE_BOUND('',#169,.T.);
#188=FACE_BOUND('',#170,.T.);
#189=FACE_BOUND('',#171,.T.);
#190=FACE_BOUND('',#172,.T.);
#191=FACE_BOUND('',#173,.T.);
#192=FACE_BOUND('',#174,.T.);
#193=FACE_BOUND('',#175,.T.);
#194=FACE_BOUND('',#176,.T.);
#195=FACE_BOUND('',#177,.T.);
#196=FACE_BOUND('',#178,.T.);
#197=FACE_BOUND('',#179,.T.);
#198=FACE_BOUND('',#180,.T.);
#199=FACE_BOUND('',#181,.T.);
#200=FACE_BOUND('',#182,.T.);
#201=FACE_BOUND('',#183,.T.);
#202=PLANE('',#233);
#203=PLANE('',#237);
#204=PLANE('',#241);
#205=PLANE('',#245);
#206=PLANE('',#255);
#207=PLANE('',#256);
#208=ADVANCED_FACE('',(#184),#202,.F.);
#209=ADVANCED_FACE('',(#185),#24,.T.);
#210=ADVANCED_FACE('',(#186),#203,.F.);
#211=ADVANCED_FACE('',(#187),#25,.T.);
#212=ADVANCED_FACE('',(#188),#204,.T.);
#213=ADVANCED_FACE('',(#189),#26,.T.);
#214=ADVANCED_FACE('',(#190),#205,.T.);
#215=ADVANCED_FACE('',(#191,#192),#27,.F.);
#216=ADVANCED_FACE('',(#193,#194),#28,.F.);
#217=ADVANCED_FACE('',(#195),#29,.T.);
#218=ADVANCED_FACE('',(#196,#197,#198),#206,.T.);
#219=ADVANCED_FACE('',(#199,#200,#201),#207,.F.);
#220=CLOSED_SHELL('',(#208,#209,#210,#211,#212,#213,#214,#215,#216,#217,
#218,#219));
#221=STYLED_ITEM('',(#222),#229);
#222=PRESENTATION_STYLE_ASSIGNMENT((#223));
#223=SURFACE_STYLE_USAGE(.BOTH.,#224);
#224=SURFACE_SIDE_STYLE('',(#225));
#225=SURFACE_STYLE_FILL_AREA(#226);
#226=FILL_AREA_STYLE('',(#227));
#227=FILL_AREA_STYLE_COLOUR('',#228);
#228=COLOUR_RGB('',0.615686274509804,0.811764705882353,0.929411764705882);
#229=MANIFOLD_SOLID_BREP('Part 1',#220);
#230=SHAPE_DEFINITION_REPRESENTATION(#390,#231);
#231=SHAPE_REPRESENTATION('Part 1',(#232),#385);
#232=AXIS2_PLACEMENT_3D('',#323,#257,#258);
#233=AXIS2_PLACEMENT_3D('',#324,#259,#260);
#234=AXIS2_PLACEMENT_3D('',#333,#265,#266);
#235=AXIS2_PLACEMENT_3D('',#334,#267,#268);
#236=AXIS2_PLACEMENT_3D('',#338,#270,#271);
#237=AXIS2_PLACEMENT_3D('',#339,#272,#273);
#238=AXIS2_PLACEMENT_3D('',#345,#277,#278);
#239=AXIS2_PLACEMENT_3D('',#346,#279,#280);
#240=AXIS2_PLACEMENT_3D('',#350,#282,#283);
#241=AXIS2_PLACEMENT_3D('',#351,#284,#285);
#242=AXIS2_PLACEMENT_3D('',#357,#289,#290);
#243=AXIS2_PLACEMENT_3D('',#358,#291,#292);
#244=AXIS2_PLACEMENT_3D('',#362,#294,#295);
#245=AXIS2_PLACEMENT_3D('',#363,#296,#297);
#246=AXIS2_PLACEMENT_3D('',#369,#301,#302);
#247=AXIS2_PLACEMENT_3D('',#370,#303,#304);
#248=AXIS2_PLACEMENT_3D('',#372,#305,#306);
#249=AXIS2_PLACEMENT_3D('',#374,#307,#308);
#250=AXIS2_PLACEMENT_3D('',#375,#309,#310);
#251=AXIS2_PLACEMENT_3D('',#377,#311,#312);
#252=AXIS2_PLACEMENT_3D('',#379,#313,#314);
#253=AXIS2_PLACEMENT_3D('',#380,#315,#316);
#254=AXIS2_PLACEMENT_3D('',#381,#317,#318);
#255=AXIS2_PLACEMENT_3D('',#382,#319,#320);
#256=AXIS2_PLACEMENT_3D('',#383,#321,#322);
#257=DIRECTION('',(0.,0.,1.));
#258=DIRECTION('',(1.,0.,0.));
#259=DIRECTION('',(-1.0458016433922E-16,-1.,0.));
#260=DIRECTION('',(1.,-1.0458016433922E-16,0.));
#261=DIRECTION('',(-1.,1.0458016433922E-16,0.));
#262=DIRECTION('',(0.,0.,-1.));
#263=DIRECTION('',(-1.,1.0458016433922E-16,0.));
#264=DIRECTION('',(0.,0.,-1.));
#265=DIRECTION('',(0.,0.,-1.));
#266=DIRECTION('',(-1.,0.,0.));
#267=DIRECTION('',(0.,0.,1.));
#268=DIRECTION('',(1.,0.,0.));
#269=DIRECTION('',(0.,0.,-1.));
#270=DIRECTION('',(0.,0.,1.));
#271=DIRECTION('',(1.,0.,0.));
#272=DIRECTION('',(1.,0.,0.));
#273=DIRECTION('',(0.,0.,-1.));
#274=DIRECTION('',(0.,-1.,0.));
#275=DIRECTION('',(0.,0.,-1.));
#276=DIRECTION('',(0.,-1.,0.));
#277=DIRECTION('',(0.,0.,-1.));
#278=DIRECTION('',(-1.,0.,0.));
#279=DIRECTION('',(0.,0.,1.));
#280=DIRECTION('',(1.,0.,0.));
#281=DIRECTION('',(0.,0.,-1.));
#282=DIRECTION('',(0.,0.,1.));
#283=DIRECTION('',(1.,0.,0.));
#284=DIRECTION('',(-1.0458016433922E-16,-1.,0.));
#285=DIRECTION('',(1.,-1.0458016433922E-16,0.));
#286=DIRECTION('',(-1.,1.0458016433922E-16,0.));
#287=DIRECTION('',(0.,0.,-1.));
#288=DIRECTION('',(-1.,1.0458016433922E-16,0.));
#289=DIRECTION('',(0.,0.,-1.));
#290=DIRECTION('',(-1.,0.,0.));
#291=DIRECTION('',(0.,0.,1.));
#292=DIRECTION('',(1.,0.,0.));
#293=DIRECTION('',(0.,0.,-1.));
#294=DIRECTION('',(0.,0.,1.));
#295=DIRECTION('',(1.,0.,0.));
#296=DIRECTION('',(1.,0.,0.));
#297=DIRECTION('',(0.,0.,-1.));
#298=DIRECTION('',(0.,-1.,0.));
#299=DIRECTION('',(0.,0.,-1.));
#300=DIRECTION('',(0.,-1.,0.));
#301=DIRECTION('',(0.,0.,-1.));
#302=DIRECTION('',(-1.,0.,0.));
#303=DIRECTION('',(0.,0.,1.));
#304=DIRECTION('',(1.,0.,0.));
#305=DIRECTION('',(0.,0.,1.));
#306=DIRECTION('',(1.,0.,0.));
#307=DIRECTION('',(0.,0.,-1.));
#308=DIRECTION('',(-1.,0.,0.));
#309=DIRECTION('',(0.,0.,-1.));
#310=DIRECTION('',(1.,0.,0.));
#311=DIRECTION('',(0.,0.,-1.));
#312=DIRECTION('',(1.,0.,0.));
#313=DIRECTION('',(0.,0.,-1.));
#314=DIRECTION('',(-1.,0.,0.));
#315=DIRECTION('',(0.,0.,1.));
#316=DIRECTION('',(1.,0.,0.));
#317=DIRECTION('',(0.,0.,1.));
#318=DIRECTION('',(1.,0.,0.));
#319=DIRECTION('',(0.,0.,1.));
#320=DIRECTION('',(1.,0.,0.));
#321=DIRECTION('',(0.,0.,1.));
#322=DIRECTION('',(1.,0.,0.));
#323=CARTESIAN_POINT('',(0.,0.,0.));
#324=CARTESIAN_POINT('',(0.,0.0376,0.0006));
#325=CARTESIAN_POINT('',(0.,0.0376,0.));
#326=CARTESIAN_POINT('',(0.06635,0.0376,0.));
#327=CARTESIAN_POINT('',(-0.06635,0.0376,0.));
#328=CARTESIAN_POINT('',(-0.06635,0.0376,0.0006));
#329=CARTESIAN_POINT('',(-0.06635,0.0376,0.0006));
#330=CARTESIAN_POINT('',(0.,0.0376,0.0006));
#331=CARTESIAN_POINT('',(0.06635,0.0376,0.0006));
#332=CARTESIAN_POINT('',(0.06635,0.0376,0.0006));
#333=CARTESIAN_POINT('',(-0.06635,0.0336,0.0006));
#334=CARTESIAN_POINT('',(-0.06635,0.0336,0.));
#335=CARTESIAN_POINT('',(-0.07035,0.0336,0.));
#336=CARTESIAN_POINT('',(-0.07035,0.0336,0.0006));
#337=CARTESIAN_POINT('',(-0.07035,0.0336,0.0006));
#338=CARTESIAN_POINT('',(-0.06635,0.0336,0.0006));
#339=CARTESIAN_POINT('',(-0.07035,6.93889390390723E-18,0.0006));
#340=CARTESIAN_POINT('',(-0.07035,6.93889390390723E-18,0.));
#341=CARTESIAN_POINT('',(-0.07035,-0.0336,0.));
#342=CARTESIAN_POINT('',(-0.07035,-0.0336,0.0006));
#343=CARTESIAN_POINT('',(-0.07035,-0.0336,0.0006));
#344=CARTESIAN_POINT('',(-0.07035,6.93889390390723E-18,0.0006));
#345=CARTESIAN_POINT('',(-0.06635,-0.0336,0.0006));
#346=CARTESIAN_POINT('',(-0.06635,-0.0336,0.));
#347=CARTESIAN_POINT('',(-0.06635,-0.0376,0.));
#348=CARTESIAN_POINT('',(-0.06635,-0.0376,0.0006));
#349=CARTESIAN_POINT('',(-0.06635,-0.0376,0.0006));
#350=CARTESIAN_POINT('',(-0.06635,-0.0336,0.0006));
#351=CARTESIAN_POINT('',(0.,-0.0376,0.0006));
#352=CARTESIAN_POINT('',(0.,-0.0376,0.));
#353=CARTESIAN_POINT('',(0.06635,-0.0376,0.));
#354=CARTESIAN_POINT('',(0.06635,-0.0376,0.0006));
#355=CARTESIAN_POINT('',(0.06635,-0.0376,0.0006));
#356=CARTESIAN_POINT('',(0.,-0.0376,0.0006));
#357=CARTESIAN_POINT('',(0.06635,-0.0336,0.0006));
#358=CARTESIAN_POINT('',(0.06635,-0.0336,0.));
#359=CARTESIAN_POINT('',(0.07035,-0.0336,0.));
#360=CARTESIAN_POINT('',(0.07035,-0.0336,0.0006));
#361=CARTESIAN_POINT('',(0.07035,-0.0336,0.0006));
#362=CARTESIAN_POINT('',(0.06635,-0.0336,0.0006));
#363=CARTESIAN_POINT('',(0.07035,-6.93889390390723E-18,0.0006));
#364=CARTESIAN_POINT('',(0.07035,-6.93889390390723E-18,0.));
#365=CARTESIAN_POINT('',(0.07035,0.0336,0.));
#366=CARTESIAN_POINT('',(0.07035,0.0336,0.0006));
#367=CARTESIAN_POINT('',(0.07035,0.0336,0.0006));
#368=CARTESIAN_POINT('',(0.07035,-6.93889390390723E-18,0.0006));
#369=CARTESIAN_POINT('',(0.0305,-1.64778483822192E-18,0.0006));
#370=CARTESIAN_POINT('',(0.0305,-1.64778483822192E-18,0.0006));
#371=CARTESIAN_POINT('',(0.06025,-1.64778483822192E-18,0.0006));
#372=CARTESIAN_POINT('',(0.0305,-1.64778483822192E-18,0.));
#373=CARTESIAN_POINT('',(0.06025,-1.64778483822192E-18,0.));
#374=CARTESIAN_POINT('',(-0.0305,-1.64778483822192E-18,0.0006));
#375=CARTESIAN_POINT('',(-0.0305,-1.64778483822192E-18,0.0006));
#376=CARTESIAN_POINT('',(-0.000750000000000001,-1.64778483822192E-18,0.0006));
#377=CARTESIAN_POINT('',(-0.0305,-1.64778483822192E-18,0.));
#378=CARTESIAN_POINT('',(-0.000750000000000001,-1.64778483822192E-18,0.));
#379=CARTESIAN_POINT('',(0.06635,0.0336,0.0006));
#380=CARTESIAN_POINT('',(0.06635,0.0336,0.));
#381=CARTESIAN_POINT('',(0.06635,0.0336,0.0006));
#382=CARTESIAN_POINT('',(0.,0.00731647918820379,0.0006));
#383=CARTESIAN_POINT('',(0.,0.00731647918820379,0.));
#384=MECHANICAL_DESIGN_GEOMETRIC_PRESENTATION_REPRESENTATION('',(#221),
#385);
#385=(
GEOMETRIC_REPRESENTATION_CONTEXT(3)
GLOBAL_UNCERTAINTY_ASSIGNED_CONTEXT((#386))
GLOBAL_UNIT_ASSIGNED_CONTEXT((#389,#388,#387))
REPRESENTATION_CONTEXT('Part 1','TOP_LEVEL_ASSEMBLY_PART')
);
#386=UNCERTAINTY_MEASURE_WITH_UNIT(LENGTH_MEASURE(1.E-8),#389,
'DISTANCE_ACCURACY_VALUE','Maximum Tolerance applied to model');
#387=(
NAMED_UNIT(*)
SI_UNIT($,.STERADIAN.)
SOLID_ANGLE_UNIT()
);
#388=(
NAMED_UNIT(*)
PLANE_ANGLE_UNIT()
SI_UNIT($,.RADIAN.)
);
#389=(
LENGTH_UNIT()
NAMED_UNIT(*)
SI_UNIT($,.METRE.)
);
#390=PRODUCT_DEFINITION_SHAPE('','',#391);
#391=PRODUCT_DEFINITION('','',#393,#392);
#392=PRODUCT_DEFINITION_CONTEXT('',#399,'design');
#393=PRODUCT_DEFINITION_FORMATION_WITH_SPECIFIED_SOURCE('','',#395,
 .NOT_KNOWN.);
#394=PRODUCT_RELATED_PRODUCT_CATEGORY('','',(#395));
#395=PRODUCT('Part 1','Part 1','Part 1',(#397));
#396=PRODUCT_CATEGORY('','');
#397=PRODUCT_CONTEXT('',#399,'mechanical');
#398=APPLICATION_PROTOCOL_DEFINITION('international standard',
'ap242_managed_model_based_3d_engineering',2011,#399);
#399=APPLICATION_CONTEXT('managed model based 3d engineering');
ENDSEC;
END-ISO-10303-21;
